<?xml version="1.0" standalone="no"?>
<!DOCTYPE svg PUBLIC "-//W3C//DTD SVG 20010904//EN"
 "http://www.w3.org/TR/2001/REC-SVG-20010904/DTD/svg10.dtd">
<svg version="1.0" xmlns="http://www.w3.org/2000/svg"
 width="552.000000pt" height="552.000000pt" viewBox="0 0 552.000000 552.000000"
 preserveAspectRatio="xMidYMid meet">
<metadata>
Created by potrace 1.14, written by Peter Selinger 2001-2017
</metadata>
<g transform="translate(0.000000,552.000000) scale(0.100000,-0.100000)"
fill="#000000" stroke="none">
<path d="M1836 4135 c-17 -9 -27 -10 -35 -2 -8 8 -11 8 -11 -1 0 -7 -13 -12
-29 -12 -22 0 -30 -5 -33 -24 -3 -13 -1 -32 4 -41 6 -9 7 -19 3 -23 -9 -9 -25
19 -25 46 0 33 -16 27 -50 -20 -20 -28 -27 -44 -19 -49 8 -5 8 -8 0 -13 -18
-12 -13 -46 7 -46 20 0 42 -18 42 -35 0 -5 -5 -3 -10 5 -9 13 -12 13 -21 -2
-12 -21 -51 -23 -79 -6 -23 15 -41 1 -20 -15 17 -13 20 -31 8 -43 -17 -16 -7
-33 26 -44 78 -25 118 -20 94 13 -11 13 -34 21 -80 26 -5 1 -8 6 -8 12 0 11
19 10 97 -7 29 -6 34 -3 43 20 5 14 21 31 35 36 14 5 30 21 37 34 6 15 22 28
39 31 16 4 29 11 29 16 0 5 11 11 24 15 14 3 32 14 42 25 20 22 34 25 34 7 0
-7 -19 -21 -41 -30 -33 -14 -39 -20 -30 -31 8 -11 6 -18 -8 -31 -11 -10 -24
-15 -30 -12 -5 3 -21 2 -36 -4 -26 -10 -27 -11 -11 -35 14 -22 15 -25 1 -25
-16 0 -17 -5 -6 -34 5 -13 18 -20 39 -21 52 -2 61 -18 59 -98 -2 -54 2 -75 13
-84 13 -11 12 -12 -6 -13 -16 0 -21 -6 -19 -22 3 -32 3 -32 20 -18 25 21 17
-5 -10 -30 -28 -26 -30 -49 -12 -128 12 -51 45 -92 72 -91 6 0 24 28 41 62 23
45 37 63 57 68 15 4 41 19 58 33 17 14 37 26 45 26 14 0 51 17 83 39 8 5 16
29 17 55 2 28 10 54 22 66 17 19 21 50 11 90 -3 10 2 14 14 12 19 -3 22 9 6
25 -15 15 17 92 53 126 49 46 23 71 -45 42 -13 -6 -16 -4 -11 10 6 14 3 16
-16 10 -15 -5 -20 -4 -16 4 4 6 13 11 20 11 8 0 18 6 24 13 19 23 -79 90 -116
80 -12 -3 -22 -9 -22 -13 0 -5 -9 -6 -19 -3 -26 7 -57 -26 -53 -57 2 -24 2
-24 -15 5 -14 24 -18 26 -21 13 -4 -22 -22 -24 -22 -3 0 11 -11 15 -36 15 -22
0 -33 4 -29 11 9 13 -23 49 -55 61 -39 15 -88 16 -114 3z m-66 -105 c0 -5 -4
-10 -10 -10 -5 0 -10 5 -10 10 0 6 5 10 10 10 6 0 10 -4 10 -10z m485 -450 c3
-5 1 -10 -4 -10 -6 0 -11 5 -11 10 0 6 2 10 4 10 3 0 8 -4 11 -10z"/>
<path d="M3338 4078 c-3 -7 1 -26 8 -43 7 -16 13 -26 14 -22 0 4 9 3 21 -3 34
-19 69 -22 69 -7 0 16 -32 47 -48 47 -6 0 -16 9 -22 20 -12 22 -35 27 -42 8z"/>
<path d="M1530 4032 c0 -10 -6 -24 -12 -31 -9 -9 -10 -12 -1 -9 6 2 18 -5 25
-15 13 -18 15 -18 25 6 9 19 8 29 -3 46 -18 26 -34 27 -34 3z"/>
<path d="M1447 4024 c5 -14 2 -16 -19 -11 -21 6 -26 4 -24 -10 4 -26 24 -27
50 -2 25 24 25 39 1 39 -9 0 -12 -6 -8 -16z"/>
<path d="M3923 4033 c-28 -5 -29 -24 -5 -46 25 -22 34 -21 60 6 32 34 7 52
-55 40z"/>
<path d="M4020 4030 c0 -6 12 -10 27 -10 29 0 24 12 -7 17 -11 2 -20 -2 -20
-7z"/>
<path d="M3006 4021 c-4 -6 -9 -25 -11 -40 -3 -26 -1 -29 23 -26 39 4 87 75
51 75 -6 0 -9 -6 -6 -14 3 -8 -1 -17 -9 -20 -9 -3 -12 -11 -8 -18 4 -7 4 -10
-1 -6 -4 4 -14 3 -22 -3 -8 -8 -13 -8 -13 -1 0 6 5 12 11 14 6 2 7 12 1 27 -6
16 -11 20 -16 12z"/>
<path d="M3461 4018 c1 -7 4 -23 7 -35 7 -21 7 -21 31 -2 23 19 23 20 5 34
-24 18 -44 19 -43 3z"/>
<path d="M1302 3991 c-30 -15 -32 -19 -18 -30 9 -7 13 -17 10 -22 -3 -5 2 -9
10 -9 10 0 13 -6 10 -15 -4 -8 -1 -15 5 -15 6 0 10 -6 9 -12 -4 -17 78 -18
100 -2 13 10 14 14 3 27 -7 9 -10 21 -6 27 3 5 1 10 -5 10 -7 0 -14 -9 -17
-20 -7 -28 -21 -25 -29 5 -3 14 -11 25 -17 25 -5 0 -3 8 6 18 10 10 17 22 17
25 0 12 -44 5 -78 -12z"/>
<path d="M1579 3993 c0 -5 -2 -20 -4 -35 -2 -18 1 -28 10 -28 15 0 26 35 18
56 -5 15 -23 19 -24 7z"/>
<path d="M2920 3964 c-7 -7 1 -14 26 -22 30 -9 35 -8 30 5 -3 8 -6 18 -6 23 0
12 -39 8 -50 -6z"/>
<path d="M3516 3955 c-3 -8 -3 -22 0 -30 7 -18 -14 -47 -28 -39 -11 7 -78 -65
-78 -83 0 -7 5 -13 11 -13 8 0 8 -5 -1 -15 -7 -8 -18 -15 -26 -15 -23 0 -25
-19 -4 -37 11 -10 20 -22 20 -27 0 -6 -5 -5 -12 2 -15 15 -52 16 -42 1 4 -7 0
-9 -14 -5 -17 6 -19 3 -12 -21 15 -56 23 -73 34 -73 8 0 12 -13 11 -35 -1 -37
-15 -62 -15 -27 0 30 0 31 -27 83 -13 26 -23 53 -23 61 0 11 -33 48 -43 48 -2
0 -3 -27 -3 -59 1 -43 6 -65 20 -80 21 -23 15 -27 -16 -10 -11 6 -30 12 -42
14 -11 1 -30 6 -41 10 -18 7 -18 6 3 -14 12 -12 22 -23 22 -25 0 -2 -15 -3
-32 -3 -47 1 -75 -11 -97 -39 -21 -26 -45 -25 -34 1 3 10 -1 15 -12 15 -13 0
-15 -6 -10 -30 5 -23 3 -30 -9 -30 -16 0 -39 -33 -30 -43 3 -3 -5 -3 -18 0
-21 6 -22 5 -9 -10 7 -9 9 -17 3 -17 -12 0 -28 19 -36 46 -6 18 -3 20 25 16
28 -4 48 8 49 30 0 9 -101 58 -122 58 -10 0 -18 7 -18 15 0 24 -78 24 -96 0
-6 -8 -18 -15 -26 -15 -9 0 -21 -7 -28 -15 -7 -8 -17 -12 -22 -9 -6 4 -8 -1
-4 -13 9 -28 -37 -113 -78 -146 -31 -24 -35 -31 -29 -60 8 -45 31 -62 55 -41
16 16 18 15 28 -10 13 -34 13 -46 0 -46 -5 0 -10 10 -10 21 0 18 -3 19 -15 9
-8 -7 -14 -25 -12 -43 1 -23 -3 -32 -16 -35 -10 -2 -38 -24 -62 -48 -25 -24
-48 -44 -52 -43 -19 3 -33 -2 -33 -11 0 -5 6 -10 14 -10 14 0 29 -24 30 -50 1
-11 -13 -16 -49 -20 l-50 -5 -3 -48 c-4 -58 15 -79 63 -70 39 7 55 21 55 45 0
10 7 21 16 25 8 3 20 16 24 29 6 15 15 22 24 18 8 -3 24 0 36 6 18 10 26 7 51
-17 16 -15 38 -36 49 -46 24 -21 18 -37 -13 -37 -18 0 -19 -2 -7 -10 24 -15
30 -12 44 22 14 31 13 33 -27 68 -24 21 -36 39 -30 43 6 4 23 -5 39 -18 16
-14 32 -25 36 -25 4 0 14 -15 22 -32 8 -18 21 -42 29 -53 13 -17 18 -18 29 -6
10 11 10 14 1 18 -18 7 -16 30 3 37 26 10 34 7 34 -12 0 -10 7 -27 15 -39 13
-18 24 -21 65 -19 56 2 65 -7 48 -54 -10 -31 -11 -31 -72 -29 -33 1 -74 8 -89
16 -22 11 -32 12 -43 2 -7 -6 -11 -15 -8 -20 10 -17 -34 -9 -60 12 -14 11 -26
18 -26 15 0 -3 -10 -2 -22 3 -16 6 -22 16 -23 37 0 29 0 29 -54 25 -30 -1 -71
-9 -90 -16 -20 -6 -45 -11 -56 -9 -21 3 -90 -60 -81 -75 3 -4 -10 -22 -29 -40
-56 -51 -66 -74 -70 -155 -4 -70 -2 -78 20 -100 14 -14 25 -29 25 -34 0 -14
68 -63 88 -63 38 -1 109 10 134 20 23 9 30 7 42 -10 7 -11 20 -20 27 -19 37 5
40 1 34 -44 -6 -36 -3 -48 12 -63 16 -16 34 -48 34 -60 0 -2 4 -16 9 -32 6
-20 4 -35 -6 -49 -20 -28 -20 -72 -1 -108 9 -18 19 -47 22 -65 3 -19 13 -50
23 -69 9 -19 17 -46 17 -60 0 -22 4 -25 40 -26 76 -1 150 44 176 109 7 17 21
39 30 48 10 10 15 26 12 41 -4 20 3 31 36 57 43 34 64 92 42 114 -6 6 -11 29
-11 50 0 35 7 46 64 101 63 60 116 140 109 162 -3 9 -17 9 -53 -1 -27 -7 -51
-10 -54 -7 -12 11 -5 32 10 32 9 0 50 16 91 36 81 40 133 96 111 121 -6 7 -16
13 -23 13 -7 0 -16 7 -19 16 -6 16 -8 16 -24 0 -10 -9 -22 -16 -25 -16 -10 0
-42 34 -61 63 -24 36 -7 40 30 7 21 -18 41 -27 55 -25 12 2 28 -2 36 -10 9
-10 35 -15 74 -15 55 0 63 -3 90 -32 16 -18 37 -33 46 -33 11 0 19 -11 23 -30
4 -17 21 -61 39 -99 31 -68 32 -69 51 -50 11 10 21 36 23 57 3 28 16 49 48 83
24 25 55 50 69 55 22 9 29 6 57 -26 19 -22 29 -43 26 -52 -5 -13 -1 -15 19
-10 20 5 27 2 36 -19 7 -14 12 -40 12 -58 0 -39 51 -140 73 -144 24 -5 9 36
-29 81 -24 29 -31 46 -28 65 3 15 7 28 9 31 3 2 21 -13 41 -33 32 -32 37 -34
51 -21 8 8 18 15 23 15 14 0 20 29 10 54 -4 13 -20 36 -35 52 l-26 28 21 20
c15 15 23 17 31 9 9 -9 9 -16 -2 -29 -12 -14 -11 -16 6 -12 12 2 19 11 17 20
-3 17 29 41 68 51 30 7 60 59 65 110 2 24 -4 45 -21 70 -29 43 -29 45 -7 69
17 19 11 23 -29 19 -23 -3 -31 15 -16 38 16 26 43 38 34 15 -5 -13 -1 -15 20
-10 20 5 27 3 31 -13 3 -11 11 -22 19 -25 8 -3 14 -14 14 -24 0 -25 7 -31 31
-25 23 6 18 36 -13 69 -17 19 -18 25 -7 45 7 13 15 31 19 39 4 8 15 14 23 14
10 -1 24 18 38 50 22 51 27 99 14 146 -6 24 -6 24 9 7 8 -11 20 -41 27 -67 8
-32 17 -46 25 -43 11 4 10 10 -2 28 -9 13 -13 29 -9 35 3 6 -6 35 -21 65 -28
59 -51 84 -41 46 5 -22 5 -22 -13 -6 -10 9 -24 15 -32 14 -7 -2 -23 0 -35 5
-22 7 -22 9 -8 43 8 19 15 46 15 58 0 12 6 27 13 32 23 18 95 41 104 33 4 -4
19 -4 33 2 14 5 20 12 14 16 -6 4 -11 21 -11 39 0 38 25 53 44 27 16 -22 22
-16 25 23 1 18 6 29 10 27 11 -7 10 -44 -4 -139 l-11 -81 38 -63 c46 -74 55
-67 59 39 2 54 -1 74 -14 88 -9 10 -20 30 -24 46 -5 22 -2 33 17 50 18 17 29
20 41 14 12 -7 16 -5 16 8 0 33 24 83 42 87 26 7 22 21 -11 49 -25 22 -28 29
-22 64 6 34 10 39 33 39 30 0 31 3 22 53 -7 34 -38 60 -49 41 -4 -6 -22 -8
-44 -5 -20 4 -54 9 -76 13 -45 7 -70 6 -103 -2 -21 -5 -21 -6 -6 -30 20 -30 1
-34 -19 -4 -12 16 -17 18 -24 7 -4 -7 -25 -19 -46 -27 -36 -12 -40 -11 -54 8
-15 22 -55 23 -76 2 -7 -7 -16 -7 -29 0 -10 5 -18 7 -18 3 0 -3 -11 1 -24 10
-18 12 -37 14 -71 9 -50 -6 -65 -24 -44 -49 7 -8 8 -14 3 -13 -5 1 -24 -2 -41
-6 -23 -5 -33 -13 -33 -26 0 -16 -3 -17 -19 -7 -11 7 -22 19 -24 28 -5 19 -65
50 -84 43 -7 -3 -13 -14 -13 -24 0 -13 -6 -18 -20 -16 -11 2 -22 6 -26 9 -3 4
-12 4 -19 2 -7 -3 -28 -7 -47 -9 -18 -2 -37 -4 -41 -4 -5 -1 -6 -5 -2 -10 3
-5 1 -12 -5 -16 -13 -8 -13 0 1 48 13 49 6 70 -31 84 -24 9 -33 9 -42 -1 -10
-10 -16 -9 -32 6 -24 22 -42 23 -50 3z"/>
<path d="M4000 3940 c0 -5 9 -10 20 -10 11 0 20 5 20 10 0 6 -9 10 -20 10 -11
0 -20 -4 -20 -10z"/>
<path d="M1466 3915 c-3 -9 -3 -22 1 -28 4 -7 8 -16 8 -22 0 -21 30 -9 45 18
13 24 13 29 0 37 -9 6 -17 5 -22 -3 -6 -9 -10 -9 -17 1 -6 11 -10 10 -15 -3z"/>
<path d="M2685 3920 c-10 -16 14 -40 40 -40 24 0 52 25 37 34 -19 11 -71 15
-77 6z"/>
<path d="M765 3910 c-11 -4 -23 -6 -27 -3 -4 2 -27 -6 -50 -19 -42 -22 -48
-24 -76 -27 -10 -1 -12 -15 -10 -51 5 -52 -8 -75 -23 -47 -7 13 -15 14 -37 6
-22 -7 -28 -16 -27 -37 0 -22 5 -28 28 -30 49 -6 28 -42 -25 -42 -25 0 -68
-44 -68 -69 0 -10 6 -24 14 -30 8 -7 12 -21 9 -31 -4 -15 0 -20 15 -20 54 0
20 -42 -68 -85 -37 -18 -45 -24 -25 -20 17 3 52 17 80 30 33 16 53 21 61 14
12 -10 50 18 39 29 -3 3 -11 0 -17 -6 -7 -7 -16 -12 -21 -12 -9 0 32 42 67 70
18 14 19 14 7 -7 -13 -26 -12 -26 42 -14 30 7 45 5 68 -7 32 -19 59 -66 59
-105 0 -14 5 -29 11 -32 6 -4 8 -13 5 -21 -3 -8 1 -14 10 -14 11 0 15 -6 11
-20 -3 -11 0 -20 5 -20 7 0 8 -18 4 -49 -4 -34 -3 -50 5 -53 19 -6 17 -59 -3
-111 -32 -83 -20 -179 29 -224 12 -12 23 -30 23 -41 0 -10 6 -27 14 -37 8 -11
12 -25 9 -32 -3 -7 2 -16 11 -19 9 -3 16 -14 16 -25 0 -10 9 -23 20 -29 18
-10 16 -1 -14 59 -20 39 -32 73 -26 76 5 3 16 -11 25 -30 8 -20 29 -55 46 -77
18 -22 33 -51 35 -64 1 -14 7 -31 13 -38 15 -18 109 -58 120 -52 14 9 129 -54
152 -82 24 -31 58 -43 77 -29 10 8 16 7 23 -4 11 -18 12 -79 1 -79 -13 0 -47
-68 -39 -76 3 -4 1 -16 -4 -27 -7 -13 -8 -22 -1 -26 5 -3 26 -34 46 -68 20
-35 48 -71 62 -80 62 -43 60 -39 57 -174 -1 -68 -5 -157 -8 -198 -3 -40 -2
-78 2 -85 12 -18 13 -39 2 -52 -7 -8 -6 -13 3 -16 10 -4 10 -8 2 -19 -9 -11
-6 -26 12 -65 28 -60 79 -98 121 -88 l25 7 -26 24 c-35 32 -42 67 -21 100 17
25 17 27 1 39 -14 10 -15 17 -7 33 6 12 16 31 22 42 8 17 8 24 -3 30 -10 7 -9
9 5 9 9 0 17 7 17 15 0 8 16 21 36 30 30 12 35 19 32 42 -2 21 1 27 13 25 27
-4 99 104 94 140 -3 18 50 58 77 58 9 0 22 15 29 33 16 38 16 38 18 81 1 20
11 43 26 60 41 44 42 69 3 98 -19 14 -49 28 -68 31 -58 9 -126 40 -123 57 4
24 -33 64 -60 65 -30 2 -97 44 -97 62 0 7 -14 10 -40 9 -22 -2 -51 2 -64 9
-18 10 -27 10 -37 1 -9 -8 -10 -8 -5 2 14 25 -51 3 -66 -23 -5 -9 -57 -12
-100 -6 -11 2 -15 35 -7 58 9 25 -3 37 -38 38 -32 0 -35 8 -18 48 19 46 19 45
-10 40 -13 -3 -31 -16 -40 -29 -11 -16 -22 -23 -38 -20 -12 3 -25 5 -28 5 -13
2 -29 54 -23 79 17 78 47 108 92 91 16 -6 24 -5 28 4 3 8 15 12 27 11 12 -1
32 -3 45 -3 14 -1 22 -7 22 -18 1 -10 7 -29 15 -43 12 -22 14 -23 20 -8 4 10
3 31 -3 47 -11 31 -1 46 61 92 15 11 27 29 27 39 0 23 64 90 85 90 8 0 12 6 9
13 -8 21 22 40 52 34 29 -5 88 15 100 35 5 8 2 9 -10 5 -9 -4 -25 -1 -36 5
-15 9 -16 16 -8 31 9 18 7 19 -23 15 -29 -5 -30 -4 -14 9 22 15 55 17 55 3 0
-5 5 -10 11 -10 5 0 7 5 3 12 -5 7 -2 9 8 5 9 -3 26 1 37 10 32 22 37 9 11
-26 -12 -17 -18 -31 -13 -32 9 -1 45 -7 64 -11 20 -5 21 20 1 38 -15 13 -19
25 -15 54 5 33 1 41 -24 64 -20 18 -30 37 -31 56 0 17 -4 39 -7 51 l-7 21 -22
-21 c-26 -25 -49 -14 -45 21 4 28 -17 53 -55 68 -28 10 -33 6 -40 -35 -3 -15
-10 -33 -15 -38 -5 -5 -7 -24 -4 -42 4 -28 1 -36 -21 -50 -18 -12 -26 -26 -26
-46 0 -32 -18 -48 -31 -28 -5 8 -3 17 4 21 9 6 9 8 -1 8 -8 0 -10 8 -6 26 5
18 3 25 -4 20 -6 -3 -23 4 -39 17 -15 13 -38 29 -51 36 -12 7 -20 16 -17 21 3
5 1 11 -5 15 -31 19 26 97 97 130 18 9 37 23 42 33 14 23 14 6 1 -19 -13 -24
-4 -44 14 -30 7 6 23 7 36 4 l24 -6 -22 30 c-21 30 -30 59 -14 50 15 -10 52
13 52 32 0 11 5 23 10 26 6 4 9 14 8 23 -2 11 5 16 22 17 31 0 45 -43 20 -62
-21 -16 -3 -30 20 -15 11 7 21 8 25 2 8 -13 -47 -65 -69 -65 -11 0 -21 -6 -23
-12 -3 -9 6 -13 26 -13 17 0 31 -5 31 -10 0 -14 46 -60 60 -60 7 0 9 9 5 23
-7 22 -7 22 8 2 15 -19 16 -19 23 -2 3 10 1 30 -5 44 -14 31 -5 45 13 21 12
-17 14 -17 36 2 l22 20 -32 36 c-22 26 -28 39 -20 44 16 10 5 42 -27 80 -23
27 -30 45 -32 76 -1 16 -52 24 -73 13 -14 -7 -16 -6 -12 6 10 24 -24 18 -51
-9 -37 -37 -43 -75 -16 -97 l22 -18 -31 -33 c-31 -32 -31 -32 -26 -7 4 18 0
29 -14 39 -13 9 -16 19 -11 29 5 9 7 28 6 43 -3 22 3 29 30 42 41 20 51 43 24
51 -13 4 -28 0 -41 -12 -19 -17 -20 -17 -17 2 3 16 -2 20 -21 20 -18 0 -25 -5
-23 -18 0 -11 -4 -16 -12 -13 -22 8 -25 -5 -9 -36 8 -16 21 -27 28 -25 9 4 8
-4 -3 -28 -9 -19 -25 -35 -36 -37 -11 -2 -19 -9 -18 -15 4 -20 -34 -35 -57
-23 -26 14 -27 44 -1 35 12 -3 21 0 25 10 3 9 11 13 18 9 8 -5 9 -2 3 12 -15
33 -11 95 8 109 16 12 24 35 11 35 -16 0 -46 -24 -54 -43 l-9 -22 0 23 c-1 12
-6 21 -13 20 -7 -2 -20 12 -29 29 -23 45 -39 63 -56 63 -15 0 -67 -50 -83 -80
-18 -33 20 -42 53 -12 14 11 17 12 12 2 -19 -31 -14 -58 11 -64 13 -4 24 -11
24 -16 0 -6 -9 -6 -26 0 -34 13 -34 13 -34 -10 0 -11 5 -20 10 -20 6 0 10 -4
10 -10 0 -14 -31 0 -61 27 -14 13 -28 20 -32 16 -4 -3 -7 2 -8 13 0 10 -3 13
-6 7 -8 -22 -21 -14 -15 9 3 12 1 19 -5 15 -5 -3 -31 -7 -59 -8 -27 -1 -55 -6
-61 -12 -9 -6 -15 -4 -19 9 -10 27 -44 56 -99 85 -11 5 -29 23 -40 38 -15 22
-25 26 -40 21z"/>
<path d="M2660 3903 c0 -6 -9 -9 -20 -6 -11 3 -20 1 -21 -3 0 -5 -2 -17 -4
-26 -2 -10 2 -21 9 -25 7 -5 21 -23 31 -40 22 -38 34 -42 36 -13 3 39 4 43 17
48 6 2 12 -3 12 -12 0 -9 7 -16 15 -16 24 0 18 13 -30 60 -25 24 -45 39 -45
33z"/>
<path d="M3690 3870 c0 -5 5 -10 11 -10 5 0 7 5 4 10 -3 6 -8 10 -11 10 -2 0
-4 -4 -4 -10z"/>
<path d="M1524 3856 c-8 -22 3 -33 18 -18 9 9 9 15 0 24 -9 9 -13 7 -18 -6z"/>
<path d="M3170 3830 c-6 -11 -14 -19 -18 -19 -34 5 -59 -41 -64 -120 -3 -51
-1 -56 24 -70 35 -20 42 -11 23 25 -8 16 -15 38 -15 49 0 26 35 85 67 111 14
12 22 27 19 33 -11 17 -24 13 -36 -9z"/>
<path d="M430 3701 c0 -5 5 -13 10 -16 6 -3 10 -2 10 4 0 5 -4 13 -10 16 -5 3
-10 2 -10 -4z"/>
<path d="M3060 3560 c0 -5 5 -10 10 -10 6 0 10 5 10 10 0 6 -4 10 -10 10 -5 0
-10 -4 -10 -10z"/>
<path d="M2243 3440 c7 -39 23 -52 57 -44 33 8 50 23 50 44 0 23 -17 29 -54
19 -19 -6 -34 -5 -44 3 -12 10 -13 7 -9 -22z"/>
<path d="M1495 3440 c-3 -5 1 -10 10 -10 9 0 13 5 10 10 -3 6 -8 10 -10 10 -2
0 -7 -4 -10 -10z"/>
<path d="M1535 3420 c-3 -5 -1 -10 4 -10 6 0 11 5 11 10 0 6 -2 10 -4 10 -3 0
-8 -4 -11 -10z"/>
<path d="M780 3288 c0 -19 2 -20 10 -8 13 19 13 30 0 30 -5 0 -10 -10 -10 -22z"/>
<path d="M2448 3272 c-10 -2 -18 -8 -18 -13 0 -14 20 -51 37 -68 8 -8 10 -17
6 -20 -15 -10 -23 -41 -11 -41 7 0 6 -5 -2 -15 -11 -14 -10 -14 14 -6 14 6 26
8 26 5 0 -2 9 0 20 6 27 14 25 23 -10 71 -16 23 -27 45 -24 50 8 14 -19 35
-38 31z"/>
<path d="M2410 3197 c-16 -12 -26 -67 -12 -67 17 1 40 27 44 49 4 28 -10 36
-32 18z"/>
<path d="M4530 3119 c0 -5 5 -7 10 -4 6 3 10 8 10 11 0 2 -4 4 -10 4 -5 0 -10
-5 -10 -11z"/>
<path d="M4452 3114 c4 -3 2 -19 -2 -35 -9 -29 5 -52 19 -32 3 6 16 13 29 17
27 9 29 36 3 36 -11 0 -23 5 -26 10 -3 6 -11 10 -17 10 -6 0 -9 -3 -6 -6z"/>
<path d="M4457 3024 c-3 -4 -2 -15 4 -25 8 -15 3 -27 -22 -59 -18 -22 -38 -40
-45 -40 -17 0 -41 -41 -36 -63 4 -18 29 -18 25 0 -1 5 24 22 55 39 l57 30 -1
46 c-2 67 -15 93 -37 72z"/>
<path d="M2637 2973 c-11 -10 -8 -63 3 -63 5 0 9 16 8 35 -1 38 -1 38 -11 28z"/>
<path d="M2850 2846 c0 -2 7 -6 15 -10 8 -3 15 -1 15 4 0 6 -7 10 -15 10 -8 0
-15 -2 -15 -4z"/>
<path d="M2980 2839 c0 -5 5 -7 10 -4 6 3 10 8 10 11 0 2 -4 4 -10 4 -5 0 -10
-5 -10 -11z"/>
<path d="M4247 2696 c-4 -9 -4 -23 0 -33 5 -14 8 -12 15 7 5 13 5 27 0 32 -6
6 -12 3 -15 -6z"/>
<path d="M1330 2649 c-12 -8 -10 -9 7 -4 15 4 37 -2 62 -16 21 -12 45 -19 52
-17 17 6 -62 48 -88 48 -10 0 -25 -5 -33 -11z"/>
<path d="M1480 2595 c-11 -13 -7 -15 29 -13 33 1 39 4 30 15 -15 17 -44 17
-59 -2z"/>
<path d="M1410 2580 c0 -5 5 -10 10 -10 6 0 10 5 10 10 0 6 -4 10 -10 10 -5 0
-10 -4 -10 -10z"/>
<path d="M1570 2580 c0 -5 5 -10 11 -10 5 0 7 5 4 10 -3 6 -8 10 -11 10 -2 0
-4 -4 -4 -10z"/>
<path d="M4257 2583 c-4 -10 -3 -18 7 -63 7 -27 10 -31 15 -17 6 18 8 17 31
-3 l25 -22 -23 5 c-18 4 -22 1 -20 -11 5 -25 35 -27 43 -2 8 24 -18 60 -42 60
-11 0 -13 8 -8 30 5 23 3 30 -9 30 -8 0 -17 -3 -19 -7z"/>
<path d="M3861 2494 c0 -11 3 -14 6 -6 3 7 2 16 -1 19 -3 4 -6 -2 -5 -13z"/>
<path d="M4235 2460 c-3 -5 -1 -10 4 -10 6 0 11 5 11 10 0 6 -2 10 -4 10 -3 0
-8 -4 -11 -10z"/>
<path d="M3678 2438 c-7 -19 2 -38 18 -38 15 0 17 9 8 34 -7 19 -20 21 -26 4z"/>
<path d="M4336 2442 c-4 -4 -12 -8 -17 -8 -5 -1 -13 -2 -19 -3 -5 0 -10 -6
-10 -12 0 -5 5 -7 10 -4 6 3 17 -1 26 -9 18 -19 34 -12 34 14 0 21 -13 33 -24
22z"/>
<path d="M4184 2379 c-16 -17 -39 -35 -51 -40 -47 -18 -20 -74 40 -84 32 -6
37 -5 37 12 0 11 9 28 20 38 15 14 17 22 9 37 -8 14 -8 23 0 31 7 7 7 14 0 24
-16 19 -22 17 -55 -18z"/>
<path d="M3910 2383 c0 -5 14 -21 30 -37 17 -16 30 -34 30 -39 0 -17 50 -77
64 -77 8 0 20 -9 27 -19 9 -13 31 -21 62 -25 26 -3 52 -8 57 -11 17 -11 11 7
-7 21 -10 7 -34 14 -53 14 -49 0 -63 11 -54 43 5 21 3 27 -11 27 -9 0 -19 8
-22 18 -3 9 -27 34 -54 55 -47 36 -69 45 -69 30z"/>
<path d="M4374 2326 c-10 -27 2 -43 14 -19 8 14 9 24 2 28 -6 3 -13 -1 -16 -9z"/>
<path d="M4265 2310 c-17 -19 -20 -76 -5 -85 6 -3 10 4 10 16 0 21 0 21 20 -2
14 -18 19 -20 20 -8 0 8 -6 21 -12 28 -10 11 -10 14 0 18 20 8 14 22 -8 16
-11 -3 -20 -1 -20 5 0 6 15 12 33 14 32 3 32 3 5 9 -19 4 -32 1 -43 -11z"/>
<path d="M4430 2292 c0 -16 41 -52 59 -52 23 0 45 -25 38 -43 -3 -9 8 -17 34
-24 30 -8 39 -7 43 4 8 19 30 16 51 -7 19 -21 45 -27 45 -11 0 5 -7 11 -15 15
-8 3 -15 13 -15 23 0 22 -49 56 -107 76 -37 13 -45 13 -63 0 -20 -14 -22 -13
-27 6 -5 20 -43 31 -43 13z"/>
<path d="M4385 2260 c3 -5 13 -10 21 -10 8 0 12 5 9 10 -3 6 -13 10 -21 10 -8
0 -12 -4 -9 -10z"/>
<path d="M4725 2240 c-3 -5 -16 -10 -28 -10 -15 0 -18 -3 -11 -10 12 -12 64 6
64 22 0 11 -17 10 -25 -2z"/>
<path d="M4220 2180 c0 -5 4 -10 9 -10 6 0 13 5 16 10 3 6 -1 10 -9 10 -9 0
-16 -4 -16 -10z"/>
<path d="M4260 2175 c-17 -21 -5 -31 15 -12 8 9 15 18 15 21 0 11 -18 6 -30
-9z"/>
<path d="M4327 2173 c-12 -12 -7 -22 8 -17 8 4 15 10 15 15 0 11 -14 12 -23 2z"/>
<path d="M4429 2133 c-9 -2 -21 -15 -27 -28 -11 -25 -32 -34 -32 -15 0 17 -18
11 -46 -15 -15 -14 -30 -25 -33 -25 -3 0 -11 -10 -16 -22 -7 -15 -24 -26 -53
-33 -62 -15 -80 -41 -75 -107 5 -57 5 -91 1 -123 -2 -15 2 -20 17 -19 35 2 81
13 117 28 19 8 48 17 64 19 30 4 73 -10 75 -25 1 -4 3 -12 4 -18 1 -5 3 -13 4
-16 0 -4 9 0 18 7 15 12 16 12 11 -3 -4 -10 -1 -19 8 -22 8 -3 14 -17 14 -31
0 -25 34 -49 54 -38 4 3 12 -1 17 -8 6 -11 11 -11 21 -1 6 6 20 12 30 12 11 0
20 10 24 26 4 14 21 45 39 69 59 77 65 128 23 203 -17 30 -37 56 -44 59 -8 3
-14 16 -14 29 0 13 -10 43 -22 66 l-22 42 -13 -44 c-22 -75 -20 -74 -50 -50
-16 12 -30 31 -33 42 -6 25 -39 46 -61 41z"/>
<path d="M3212 2110 c-7 -12 -23 -26 -36 -32 -18 -8 -26 -21 -30 -52 -9 -61
-8 -78 4 -90 19 -19 43 7 66 75 33 92 30 153 -4 99z"/>
<path d="M4892 1970 c7 -11 17 -20 22 -20 5 0 1 9 -9 20 -10 11 -20 20 -22 20
-2 0 2 -9 9 -20z"/>
<path d="M4965 1658 c3 -32 0 -51 -9 -61 -9 -8 -11 -19 -6 -27 4 -7 6 -20 3
-29 -2 -9 11 2 31 24 34 39 35 40 15 58 -10 10 -19 25 -19 35 0 9 -5 24 -10
32 -7 10 -8 0 -5 -32z"/>
<path d="M4524 1560 c1 -43 32 -37 48 10 4 11 -2 16 -22 17 -25 2 -27 -1 -26
-27z"/>
<path d="M4900 1536 c-7 -13 -28 -32 -47 -43 -19 -10 -40 -28 -48 -40 -14 -20
-13 -23 5 -33 16 -9 23 -5 41 20 13 16 30 32 38 35 9 3 24 18 33 34 13 24 14
32 4 40 -9 8 -16 4 -26 -13z"/>
</g>
</svg>
